<svg xmlns="http://www.w3.org/2000/svg"><symbol id="facebook-icon" viewBox="0 0 24 24"><path d="M12 0C5.373 0 0 5.373 0 12s5.373 12 12 12 12-5.373 12-12S18.627 0 12 0zm3 8h-1.35c-.538 0-.65.221-.65.778V10h2l-.209 2H13v7h-3v-7H8v-2h2V7.692C10 5.923 10.931 5 13.029 5H15v3z"/></symbol><symbol id="instagram-icon" viewBox="0 0 24 24"><path d="M17.25 7.288v1.269a.539.539 0 0 1-.538.539h-1.269a.538.538 0 0 1-.538-.539V7.288c0-.297.239-.538.538-.538h1.269c.297 0 .538.241.538.538zM12 14.691zm4.261-3.291c.028.196.046.396.046.599A4.307 4.307 0 1 1 7.693 12c0-.204.018-.403.046-.599.027-.194.066-.383.118-.567H6.75v5.879c0 .297.241.538.538.538h9.424a.538.538 0 0 0 .538-.538v-5.879h-1.107c.05.184.09.373.118.566zM24 12c0 6.627-5.373 12-12 12S0 18.627 0 12 5.373 0 12 0s12 5.373 12 12zm-5-5.385C19 5.723 18.277 5 17.385 5H6.615C5.723 5 5 5.723 5 6.615v10.769C5 18.277 5.723 19 6.615 19h10.77c.892 0 1.615-.723 1.615-1.616V6.615z"/></symbol><symbol id="twitter-icon" viewBox="0 0 24 24"><path d="M12 0C5.373 0 0 5.373 0 12s5.373 12 12 12 12-5.373 12-12S18.627 0 12 0zm6.066 9.645c.183 4.04-2.83 8.544-8.164 8.544A8.127 8.127 0 0 1 5.5 16.898a5.778 5.778 0 0 0 4.252-1.189 2.879 2.879 0 0 1-2.684-1.995 2.88 2.88 0 0 0 1.298-.049c-1.381-.278-2.335-1.522-2.304-2.853.388.215.83.344 1.301.359a2.877 2.877 0 0 1-.889-3.835 8.153 8.153 0 0 0 5.92 3.001 2.876 2.876 0 0 1 4.895-2.62 5.73 5.73 0 0 0 1.824-.697 2.884 2.884 0 0 1-1.263 1.589 5.73 5.73 0 0 0 1.649-.453 5.765 5.765 0 0 1-1.433 1.489z"/></symbol><symbol id="toggle-menu" viewBox="0 0 24 24"><path d="M24 6H0V2h24v4zm0 4H0v4h24v-4zm0 8H0v4h24v-4z"/></symbol><symbol id="shopping-cart" viewBox="0 0 24 24"><path d="M10 19.5a1.5 1.5 0 1 1-3 0 1.5 1.5 0 0 1 3 0zm3.5-1.5a1.5 1.5 0 1 0 0 3 1.5 1.5 0 0 0 0-3zm1.336-5l1.977-7H0l2.938 7h11.898zm4.969-10l-3.432 12H3.776l.839 2h13.239l3.474-12h1.929L24 3h-4.195z"/></symbol></svg>