<svg xmlns="http://www.w3.org/2000/svg"><symbol id="facebook-icon" viewBox="0 0 24 24"><style>.st0{fill:#dad7c5}</style><path d="M12 0C5.6 0 0 5.6 0 12s5.6 12 12 12 12-5.6 12-12S18.4 0 12 0zm3.6 8H14c-.8 0-.8 0-.8.8v.8h1.6v1.6h-1.6v7.2H10V12H8.4V9.6H10V8c0-1.6.8-2.4 3.2-2.4h1.6V8h.8z" class="st0"/></symbol><symbol id="instagram-icon" viewBox="0 0 24 24"><style>.st0{fill:#dad7c5}</style><path d="M17.2 7.3v1.3c0 .3-.2.5-.5.5h-1.3c-.3 0-.5-.2-.5-.5V7.3c0-.3.2-.5.5-.5h1.3c.3 0 .5.2.5.5zm-.9 4.1v.6c0 2.4-1.9 4.3-4.3 4.3S7.7 14.4 7.7 12v-.6c0-.2.1-.4.1-.6h-1v5.9c0 .3.2.5.5.5h9.4c.3 0 .5-.2.5-.5v-5.9h-1.1c.1.2.1.4.2.6zm7.7.6c0 6.6-5.4 12-12 12S0 18.6 0 12 5.4 0 12 0s12 5.4 12 12zm-5-5.4c0-.9-.7-1.6-1.6-1.6H6.6C5.7 5 5 5.7 5 6.6v10.8c0 .9.7 1.6 1.6 1.6h10.8c.9 0 1.6-.7 1.6-1.6V6.6z" class="st0"/></symbol><symbol id="shopping-cart" viewBox="0 0 24 24"><path d="M10 19.5a1.5 1.5 0 1 1-3 0 1.5 1.5 0 0 1 3 0zm3.5-1.5a1.5 1.5 0 1 0 0 3 1.5 1.5 0 0 0 0-3zm1.336-5l1.977-7H0l2.938 7h11.898zm4.969-10l-3.432 12H3.776l.839 2h13.239l3.474-12h1.929L24 3h-4.195z"/></symbol><symbol id="toggle-menu" viewBox="0 0 24 24"><path d="M24 6H0V2h24v4zm0 4H0v4h24v-4zm0 8H0v4h24v-4z"/></symbol><symbol id="twitter-icon" viewBox="0 0 24 24"><style>.st0{fill:#dad7c5}</style><path d="M12 0C5.4 0 0 5.4 0 12s5.4 12 12 12 12-5.4 12-12S18.6 0 12 0zm6.1 9.6c.2 4-2.8 8.5-8.2 8.5-1.6 0-3.1-.4-4.4-1.3 1.5.2 3-.2 4.3-1.2-1.2 0-2.3-.8-2.7-2 .4.1.9.1 1.3 0-1.4-.2-2.4-1.5-2.3-2.8.4.2.8.3 1.3.4-1.3-.8-1.7-2.5-.9-3.8 1.5 1.8 3.6 2.9 5.9 3-.4-1.6.6-3.2 2.1-3.5 1-.2 2 .1 2.7.8.6-.1 1.3-.4 1.8-.7-.2.7-.7 1.2-1.3 1.6.6-.1 1.1-.2 1.6-.5-.2.6-.7 1.1-1.2 1.5z" class="st0"/></symbol></svg>