<svg xmlns="http://www.w3.org/2000/svg" width="24" height="24" viewBox="0 0 24 24"><path d="M17.25 7.288v1.269a.539.539 0 0 1-.538.539h-1.269a.538.538 0 0 1-.538-.539V7.288c0-.297.239-.538.538-.538h1.269c.297 0 .538.241.538.538zM12 14.691zm4.261-3.291c.028.196.046.396.046.599A4.307 4.307 0 1 1 7.693 12c0-.204.018-.403.046-.599.027-.194.066-.383.118-.567H6.75v5.879c0 .297.241.538.538.538h9.424a.538.538 0 0 0 .538-.538v-5.879h-1.107c.05.184.09.373.118.566zM24 12c0 6.627-5.373 12-12 12S0 18.627 0 12 5.373 0 12 0s12 5.373 12 12zm-5-5.385C19 5.723 18.277 5 17.385 5H6.615C5.723 5 5 5.723 5 6.615v10.769C5 18.277 5.723 19 6.615 19h10.77c.892 0 1.615-.723 1.615-1.616V6.615z"/></svg>