<svg viewBox="0 0 64 64" xmlns="http://www.w3.org/2000/svg"><text fill="#343f0d" font-family="AbrilFatface-Regular, Abril Fatface" font-size="8.76" transform="translate(17.96 54.63)">DIVINE<tspan letter-spacing="-.01em" x="-12.94" y="7.82">S</tspan><tspan letter-spacing="-.02em" x="-7.82" y="7.82">U</tspan><tspan letter-spacing="-.03em" x="-2.01" y="7.82">C</tspan><tspan letter-spacing="-.02em" x="3.77" y="7.82">C</tspan><tspan x="9.6" y="7.82">ULEN</tspan><tspan letter-spacing="-.03em" x="32.14" y="7.82">T</tspan><tspan x="37.86" y="7.82">S</tspan></text><path d="m44.1 8.86s-9.19 7.21-8 21.82c-.02 0 6-4.36 8-21.82z" fill="#76ab39"/><path d="m51.61 11.71s-19 25.64-19 29.88c.05 0 16.83-9.66 19-29.88z" fill="#adce39"/><path d="m6.48 16.37s4.57 28.37 25.35 30.63c0 0-14.96-14-25.35-30.63z" fill="#76ab39"/><path d="m55.52 16.37s-4 28.37-22 30.63c-.03 0 12.97-14 22-30.63z" fill="#76ab39"/><path d="m12.3 9.92s5.91 25.19 20 33.91a128 128 0 0 0 -20-33.91z" fill="#adce39"/><path d="m34.61 0s-8.86 24.14-2.24 40.19a136 136 0 0 0 2.24-40.19z" fill="#adce39"/><path d="m21 10.14a31.38 31.38 0 0 0 7.91 19.68s2.09-10.66-7.91-19.68z" fill="#76ab39"/></svg>