<svg viewBox="0 0 24 24" xmlns="http://www.w3.org/2000/svg"><path d="m18.41 4.34s-4.5 3.52-3.93 10.66c0 0 2.95-2.12 3.93-10.66z" fill="#76ab39"/><path d="m22.09 5.73s-9.28 12.55-9.28 14.62c0 0 8.19-4.73 9.28-14.62z" fill="#adce39"/><path d="m0 8s2.24 13.89 12.41 15a86.28 86.28 0 0 1 -12.41-15z" fill="#76ab39"/><path d="m24 8s-1.94 13.89-10.78 15a84.75 84.75 0 0 0 10.78-15z" fill="#76ab39"/><path d="m2.85 4.86s2.89 12.32 9.76 16.59a62.52 62.52 0 0 0 -9.76-16.59z" fill="#adce39"/><path d="m13.77 0s-4.34 11.81-1.1 19.67a66.79 66.79 0 0 0 1.1-19.67z" fill="#adce39"/><path d="m7.11 5a15.38 15.38 0 0 0 3.89 9.59 10.92 10.92 0 0 0 -3.89-9.59z" fill="#76ab39"/></svg>