<svg id="Layer_1" data-name="Layer 1" xmlns="http://www.w3.org/2000/svg" viewBox="0 0 138.5 157.04"><defs><style>.cls-1{font-size:19.04px;fill:#343f0d;font-family:AbrilFatface-Regular, Abril Fatface;}.cls-2{letter-spacing:-0.02em;}.cls-3{letter-spacing:-0.02em;}.cls-4{letter-spacing:-0.03em;}.cls-5{letter-spacing:-0.03em;}.cls-6{letter-spacing:0em;}.cls-7{fill:#76ab39;}.cls-8{fill:#adce39;stroke:#fff;stroke-miterlimit:10;}</style></defs><title>Artboard 1 copy</title><text class="cls-1" transform="translate(43.51 138.43)">DIVINE<tspan class="cls-2" x="-28.13" y="17">S</tspan><tspan class="cls-3" x="-16.99" y="17">U</tspan><tspan class="cls-4" x="-4.37" y="17">C</tspan><tspan class="cls-5" x="8.2" y="17">C</tspan><tspan x="20.86" y="17">ULEN</tspan><tspan class="cls-4" x="69.85" y="17">T</tspan><tspan class="cls-6" x="82.28" y="17">S</tspan></text><path class="cls-7" d="M106.12,20.88S77.9,37.81,83.54,77.32C83.54,77.32,100.47,66,106.12,20.88Z"/><path class="cls-8" d="M126.76,28.25S73.93,96.54,73.93,107.83C73.93,107.83,120.71,82.1,126.76,28.25Z"/><path class="cls-7" d="M.25,40.3s12.87,73.37,71.34,79.22C71.59,119.52,29.49,83.27.25,40.3Z"/><path class="cls-7" d="M138.25,40.3s-11.18,73.37-62,79.22C76.27,119.52,112.85,83.27,138.25,40.3Z"/><path class="cls-8" d="M16.62,23.62s16.63,65.14,56.14,87.72C72.76,111.34,54.86,66,16.62,23.62Z"/><path class="cls-8" d="M79.42-2s-24.93,62.43-6.3,104C73.12,101.91,85.37,54.72,79.42-2Z"/><path class="cls-7" d="M41.13,24.18s-.3,28.33,22.27,50.9C63.4,75.08,69.35,41.12,41.13,24.18Z"/></svg>