<svg viewBox="0 0 32 32" xmlns="http://www.w3.org/2000/svg"><path d="m24.55 6s-6 4.7-5.24 14.24c0-.05 3.93-2.9 5.24-14.24z" fill="#76ab39"/><path d="m29.45 7.81s-12.37 16.73-12.37 19.49c0 0 10.92-6.3 12.37-19.49z" fill="#adce39"/><path d="m0 10.85s3 18.51 16.54 20a115.31 115.31 0 0 1 -16.54-20z" fill="#76ab39"/><path d="m32 10.85s-2.59 18.51-14.37 20a112.69 112.69 0 0 0 14.37-20z" fill="#76ab39"/><path d="m3.8 6.64s3.85 16.43 13 22.13a83.65 83.65 0 0 0 -13-22.13z" fill="#adce39"/><path d="m18.36.17s-5.78 15.75-1.46 26.22a88.91 88.91 0 0 0 1.46-26.22z" fill="#adce39"/><path d="m9.48 6.78a20.48 20.48 0 0 0 5.16 12.84s1.36-6.95-5.16-12.84z" fill="#76ab39"/></svg>