<svg xmlns="http://www.w3.org/2000/svg" id="Layer_1" viewBox="0 0 138.5 161.04" width="138.5" height="161.04"><defs><style>.cls-1{font-size:19.04px;fill:#343f0d;font-family:AbrilFatface-Regular,Abril Fatface}.cls-2,.cls-3{letter-spacing:-.02em}.cls-4,.cls-5{letter-spacing:-.03em}.cls-6{letter-spacing:0}.cls-7{fill:#76ab39}.cls-8{fill:#adce39;stroke:#fff;stroke-miterlimit:10}</style></defs><text class="cls-1" transform="translate(36.51 142.43)">DIVINE<tspan x="-28.13" y="17" class="cls-2">S</tspan><tspan x="-16.99" y="17" class="cls-3">U</tspan><tspan x="-4.37" y="17" class="cls-4">C</tspan><tspan x="8.2" y="17" class="cls-5">C</tspan><tspan x="20.86" y="17">ULEN</tspan><tspan x="69.85" y="17" class="cls-4">T</tspan><tspan x="82.28" y="17" class="cls-6">S</tspan></text><path d="M106.12 24.88S80.25 43.52 83.54 81.32c0 0 16.93-11.32 22.58-56.44z" class="cls-7"/><path d="M126.76 32.25s-52.83 68.29-52.83 79.58c0 0 46.78-25.73 52.83-79.58z" class="cls-8"/><path d="M.25 44.3s12.87 73.37 71.34 79.22c0 0-42.1-36.25-71.34-79.22zm138 0s-11.18 73.37-62 79.22c.02 0 36.6-36.25 62-79.22z" class="cls-7"/><path d="M16.62 27.62s16.63 65.14 56.14 87.72c0 0-17.9-45.34-56.14-87.72zM79.42 2s-24.93 62.43-6.3 104c0-.09 12.25-47.28 6.3-104z" class="cls-8"/><path d="M41.13 28.18s-.3 28.33 22.27 50.9c0 0 5.85-27.56-22.27-50.9z" class="cls-7"/></svg>