<svg viewBox="0 0 138.5 161.04" xmlns="http://www.w3.org/2000/svg"><path d="m106.12 40.88s-25.87 18.64-22.58 56.44c0 0 16.93-11.32 22.58-56.44z" fill="#76ab39"/><path d="m127.25 48.25s-53.32 66.31-53.32 77.27c0 0 47.21-24.98 53.32-77.27z" fill="#adce39" stroke="#fff" stroke-miterlimit="10"/><path d="m.25 60.3s12.87 73.37 71.34 79.22c0 0-42.1-36.25-71.34-79.22z" fill="#76ab39"/><path d="m138.25 60.3s-11.18 73.37-62 79.22c.02 0 36.6-36.25 62-79.22z" fill="#76ab39"/><path d="m16.62 43.62s16.63 65.14 56.14 87.72c0 0-17.9-45.34-56.14-87.72z" fill="#adce39" stroke="#fff" stroke-miterlimit="10"/><path d="m79.42 18s-24.93 62.43-6.3 104c0-.09 12.25-47.28 6.3-104z" fill="#adce39" stroke="#fff" stroke-miterlimit="10"/><path d="m41.13 44.18s-.3 28.33 22.27 50.9c0 0 5.85-27.56-22.27-50.9z" fill="#76ab39"/></svg>