<svg height="161.04" viewBox="0 0 138.5 161.04" width="138.5" xmlns="http://www.w3.org/2000/svg"><text fill="#343f0d" font-family="AbrilFatface-Regular,Abril Fatface" font-size="19.04" transform="translate(36.51 142.43)">DIVINE<tspan letter-spacing="-.02em" x="-28.13" y="17">S</tspan><tspan letter-spacing="-.02em" x="-16.99" y="17">U</tspan><tspan letter-spacing="-.03em" x="-4.37" y="17">C</tspan><tspan letter-spacing="-.03em" x="8.2" y="17">C</tspan><tspan x="20.86" y="17">ULEN</tspan><tspan letter-spacing="-.03em" x="69.85" y="17">T</tspan><tspan letter-spacing="0" x="82.28" y="17">S</tspan></text><path d="m106.12 24.88s-25.87 18.64-22.58 56.44c0 0 16.93-11.32 22.58-56.44z" fill="#76ab39"/><path d="m126.76 32.25s-52.83 68.29-52.83 79.58c0 0 46.78-25.73 52.83-79.58z" fill="#adce39" stroke="#fff" stroke-miterlimit="10"/><path d="m.25 44.3s12.87 73.37 71.34 79.22c0 0-42.1-36.25-71.34-79.22zm138 0s-11.18 73.37-62 79.22c.02 0 36.6-36.25 62-79.22z" fill="#76ab39"/><path d="m16.62 27.62s16.63 65.14 56.14 87.72c0 0-17.9-45.34-56.14-87.72zm62.8-25.62s-24.93 62.43-6.3 104c0-.09 12.25-47.28 6.3-104z" fill="#adce39" stroke="#fff" stroke-miterlimit="10"/><path d="m41.13 28.18s-.3 28.33 22.27 50.9c0 0 5.85-27.56-22.27-50.9z" fill="#76ab39"/></svg>